<?xml version="1.0" encoding="UTF-8"?><svg id="Layer_1" xmlns="http://www.w3.org/2000/svg" viewBox="0 0 576 339.2"><defs><style>.cls-1{fill:#fff;}.cls-2{fill:#c8102e;}.cls-3{fill:#1d428a;}</style></defs><path class="cls-3" d="M227.7,330.9h-38V8.3h58.7l39.3,266.1c-5.9-63.3-13.5-165.4-13.5-219.1V8.3h38v322.6h-53.7l-36.2-258.5c3.2,57.8,5.4,127,5.4,165.8v92.7Z"/><path class="cls-3" d="M377.2,190.8v99.4h7.2c13.6,0,17.6-7.7,17.6-23v-54.7c0-15.8-5-21.7-19.4-21.7h-5.4ZM377.2,48.9v106.6h5.4c15.4,0,19.4-5.9,19.4-23.5v-61.4c0-14.9-4.5-21.7-17.6-21.7h-7.2ZM333.9,330.9V8.3h53.8c35.7,0,57.8,19.4,57.8,64.6v47.4c0,29.4-9,44.3-21.7,52,12.6,8.1,21.7,22.6,21.7,47.4v47c0,44.3-23.5,64.2-57.8,64.2h-53.8Z"/><path class="cls-3" d="M501.5,233.7h23l-3.6-59.2c-1.4-23.5-5-98.1-7.7-138.3h-1.8l-6.4,138.4-3.5,59.1ZM526.8,270.3h-27.1l-3.6,60.5h-43.9L483.8,8.3h61.5l30.7,322.6h-45.7l-3.5-60.6Z"/><path class="cls-1" d="M114.5,0H35.1C15.7,0,.1,15.7,0,35.1v268.9c0,19.4,15.7,35.1,35.1,35.2h79.4c19.4,0,35.1-15.7,35.2-35.2V35.1c0-19.4-15.7-35.1-35.2-35.1"/><path class="cls-2" d="M94.8,62.2l.1,1.1c2.4,1.4,3.6,2.6,6.1,4.1,6.5,4.1,14.5,11.3,13.4,36.3,1.8,5.5,2.6,16.1,4.3,19.6,3.4,6.7,5.6,11,6.6,17.4,0,0,1,9.8,2.2,10.5,6.7,1.5,4.8,2.2,5.7,3.3,1,1.4,4.9,1.3,4.9,4.9,1.3,1.7,2.3,3.6,3.1,5.6V35.1c0-14.8-12-26.8-26.8-26.8h-25.5c4.1,1.5,6.5,3.2,7.8,5.9,3.3.3,7.2,7.7,1.1,18.7,2.7,1.8.6,4.5-1.4,7.6-.6,1-1.2,2.8-3,2.7-2.3,4.9-5.2,9.6-7.3,9.9-.6.8-1.1,2.9-.1,3.9,3.2,1.5,7,3.4,8.8,5.2"/><path class="cls-2" d="M141.3,182.6c-4.9,12.3-18.8,18.3-31.1,13.4-12.3-4.9-18.3-18.8-13.4-31.1,2.9-7.2,9.1-12.6,16.6-14.4-2.8-6.9-8.6-18.1-10.3-21.8s-5.6-26.4-6.4-30.9c-.2-1-10.3,5.9-10.4,6.3-.6.6-7.6,18.9-7.9,19.9-.1,1-.2,2-.2,3.1,0,0,3.4.4,5.4,6.4s8,27.9,8,27.9c-.5.6-1.1,1.1-1.7,1.6,7.6,25.3,4.9,36.2,8.3,43.6,4.3,10.5,5.4,9.1,9.1,17.9,2.6,6.4,5.6,31.6,6.5,32.7,4.1,5.2,6.3,9.2,6.3,12.1s-3.5,11.6-2.2,16.7c.8,3,1.2,9.6,2.6,10.9,0,0,1.3,2.5.6,3.6-.2.4-.5,1-.4,1.4,2.2,8,9.5,21.5-2.2,28.6h.2c13.1-2,22.7-13.3,22.6-26.5v-121.4Z"/><path class="cls-3" d="M111.1,298.9c-4.3-3.8-1.4-5.5-1.6-7-2.8-11.8-12.2-18.9-7.4-22.7-1.2-3.9-3.6-8.8-3.5-8.8-14.5-8.3-26.9-21.9-29-23.9-2.6-2.8-6.9-5.5-7.7-7.8-3.5-3.2-20.6-27.5-24.6-36.5l-7-1c-3.2-12.9-13.7-23.8-14-36.7-.1-4.9,2.2-15.4,3.1-17.5s4.9-5.6,4.9-5.6v-3.5c-15.2.4-10.8-1.1-13.4-7-1.8-4.1-.5-5,.1-7.8,2-8.4,8.8-21.3,11.6-27.1.8-3,3.8-10.1,3.8-10.1,11.3-23,15.5-21.3,29-22.6l.7-.9c13.5-.6,11.3-1.6,13.1-14.6-2,.8-2.5-4.1-2.5-4.1-1.1-7.4,2-6,3.5-6.1.3-12.1,1.6-16,10.3-19.3h-45.4c-14.8,0-26.8,12-26.8,26.8h0v268.9c0,14.8,12,26.9,26.8,26.9h79.4c-9.1-4.9-3.7-14.3-3.4-32Z"/></svg>