<svg xmlns="http://www.w3.org/2000/svg" viewBox="0 0 640 320" preserveAspectRatio="xMidYMid slice">
  <defs>
    <linearGradient id="bg" x1="0" x2="1" y1="0" y2="1">
      <stop offset="0%" stop-color="#ff9f43"/>
      <stop offset="50%" stop-color="#ff6f61"/>
      <stop offset="100%" stop-color="#2d2a32"/>
    </linearGradient>
    <linearGradient id="steam" x1="0" x2="0" y1="0" y2="1">
      <stop offset="0%" stop-color="#ffffff" stop-opacity="0.8"/>
      <stop offset="100%" stop-color="#ffffff" stop-opacity="0"/>
    </linearGradient>
  </defs>
  <rect width="640" height="320" fill="url(#bg)" />
  <g fill="none" stroke="url(#steam)" stroke-width="6" stroke-linecap="round">
    <path d="M120 220 C100 160, 160 140, 140 80" />
    <path d="M180 220 C160 150, 220 140, 200 60" />
    <path d="M240 220 C220 170, 280 150, 260 100" />
  </g>
  <g fill="#fffdf7">
    <path d="M110 230 h420 a8 8 0 0 1 8 8 v22 a24 24 0 0 1 -24 24 H126 a24 24 0 0 1 -24 -24 v-22 a8 8 0 0 1 8 -8z" opacity="0.15"/>
    <path d="M220 200 h200 a12 12 0 0 1 12 12 v26 a40 40 0 0 1 -40 40 H248 a40 40 0 0 1 -40 -40 v-26 a12 12 0 0 1 12 -12z"/>
    <circle cx="250" cy="220" r="18" fill="#ff9f43"/>
    <circle cx="310" cy="220" r="18" fill="#2d2a32"/>
    <circle cx="370" cy="220" r="18" fill="#ff9f43"/>
  </g>
  <text x="60" y="70" font-family="Poppins, Arial, sans-serif" font-size="32" fill="#fffdf7" font-weight="600">
    Alfonso Kitchen Lab
  </text>
  <text x="60" y="110" font-family="Poppins, Arial, sans-serif" font-size="18" fill="#ffe9d6">
    Organización culinaria para equipos DAW
  </text>
</svg>
